# xmcd
#
# Track frame offsets: 
#        183
#        21125
#        55893
#        83933
#        114263
#        146753
#        169450
#        199168
#        222628
#
# Disc length: 3470 seconds
#
# Revision: 4
# Processed by: cddbd v1.5.2PL0 Copyright (c) Steve Scherf et al.
# Submitted via: ExactAudioCopy v0.99pb4
#
DISCID=860d8c09
DTITLE=Teddy Edwards - Mississippi Lad
DYEAR=1991
DGENRE=Jazz
TTITLE0=Little Man
TTITLE1=Safari Walk
TTITLE2=The Blue Sombrero
TTITLE3=Mississippi Lad
TTITLE4=Three Base Hit
TTITLE5=I'm Not Your Fool Anymore
TTITLE6=Symphony On Central
TTITLE7=Ballad For A Bronze Beauty
TTITLE8=The Call of Love
EXTD=
EXTT0=
EXTT1=
EXTT2=
EXTT3=
EXTT4=
EXTT5=
EXTT6=
EXTT7=
EXTT8=
PLAYORDER=
